# xmcd
#
# Track frame offsets:
#	183
#	11093
#	20848
#	33083
#	42533
#	54105
#	65758
#	81283
#	93693
#	111778
#	122988
#	139715
#	152193
#	163828
#
# Disc length: 2452 seconds
#
# Revision: 1
# Processed by: cddbd v1.5.1PL0 Copyright (c) Steve Scherf et al.
# Submitted via: EasyCDDAExtractor 6.2.0.3
#
DISCID=c209920e
DTITLE=Nancy - Country Love
DYEAR=1900
DGENRE=Country
TTITLE0=Silver Threads and Golden Needles
TTITLE1=When Will I Be Ioved
TTITLE2=Apartment Number Nine
TTITLE3=Your Good Girl's Gonna Go Bad
TTITLE4=I Don't Wanna Play House
TTITLE5=Love Is A Rose
TTITLE6=Do Ya?
TTITLE7=D.I.V.O.R.C.E.
TTITLE8=I'll Always Come Back
TTITLE9=It's So Easy
TTITLE10=Hé Bobby
TTITLE11=Love Me Tender
TTITLE12=That'll Be The Day
TTITLE13=Hold Me
EXTD=
EXTT0=
EXTT1=
EXTT2=
EXTT3=
EXTT4=
EXTT5=
EXTT6=
EXTT7=
EXTT8=
EXTT9=
EXTT10=
EXTT11=
EXTT12=
EXTT13=
PLAYORDER=
